<?xml version="1.0" encoding="utf-8"?>
<!-- Generator: Adobe Illustrator 28.2.0, SVG Export Plug-In . SVG Version: 6.00 Build 0)  -->
<svg version="1.1" id="Camada_1" xmlns="http://www.w3.org/2000/svg" xmlns:xlink="http://www.w3.org/1999/xlink" x="0px" y="0px"
	 viewBox="0 0 947 938" style="enable-background:new 0 0 947 938;" xml:space="preserve">
<style type="text/css">
	.st0{fill:#74010B;}
	.st1{fill:none;stroke:#FFFFFF;stroke-width:10.8754;stroke-linecap:round;}
	.st2{fill:none;stroke:#FFFFFF;stroke-width:10.8754;}
	.st3{fill:#FFFFFF;}
</style>
<path class="st0" d="M587,938H359.6C160.9,938-0.2,776.9-0.2,578.2V359.8C-0.2,161.1,160.9,0,359.6,0H587
	c198.7,0,359.8,161.1,359.8,359.8v218.4C946.8,776.9,785.7,938,587,938z"/>
<g>
	<path class="st1" d="M280.1,529.5c0,0,16.4,44.9,57.7,44.9s61-44.9,61-44.9"/>
	<path class="st1" d="M282,539.1l-11.5,6.4"/>
	<path class="st1" d="M337.8,590.5v-16"/>
	<path class="st1" d="M395.6,539.1l12.9,6.4"/>
	<path class="st1" d="M303.5,564.4l-10.6,13.2"/>
	<path class="st1" d="M376.3,564.9l9.6,9.6"/>
	<path class="st1" d="M547.3,529.5c0,0,16.4,44.9,57.7,44.9s61-44.9,61-44.9"/>
	<path class="st1" d="M549.2,539.1l-11.5,6.4"/>
	<path class="st1" d="M605,590.5v-16"/>
	<path class="st1" d="M662.8,539.1l12.9,6.4"/>
	<path class="st1" d="M570.6,564.4L560,577.6"/>
	<path class="st1" d="M643.5,564.9l9.6,9.6"/>
	<path class="st2" d="M614.6,426.2H332.8c-35.1,0-114.2,29.5-114.2,105.8c0,79.1,31.7,126.9,114.2,126.9s112.7-56.7,127.2-72.5
		c6.2-6.7,9.6-9.7,16.5-9.7s8.7,4,14.5,9.7c23.3,23.4,40.6,72.5,123.6,72.5c68,0,112.7-31,112.7-126.9
		C727.3,454.5,651.2,429.2,614.6,426.2z"/>
	<path class="st3" d="M801.8,211.2l-6.4-1.2l0,0L801.8,211.2z M770.6,184l2.9,6l0,0L770.6,184z M761.2,419.4l-6.4-1.2l-1.3,6.7
		l6.8,1.1L761.2,419.4z M762.5,419.6l-1,6.6L762.5,419.6z M855.8,513.3l-6.3,2.1L855.8,513.3z M851.6,521.3l-2.1-6.3L851.6,521.3z
		 M818.1,565.6l1-6.6L818.1,565.6z M886.4,684.9h6.6l0,0H886.4z M877.9,690.7l2.2-6.2L877.9,690.7z M760.4,686.8l0.5,6.6
		L760.4,686.8z M630.5,760.7l4.5,4.7l0.4-0.4l0.2-0.4L630.5,760.7z M613.9,776.3l-4.5-4.7l-1.2,1.2l-0.5,1.7L613.9,776.3z
		 M351.7,794.4l6.2-2.4l-0.5-1.3l-1.1-1L351.7,794.4z M316.1,760.7l-5.2,4.1l0.2,0.4l0.4,0.4L316.1,760.7z M186.3,686.8l-0.5,6.6
		L186.3,686.8z M68.8,690.7l2.2,6.2l0,0L68.8,690.7z M60.2,684.9h-6.6l0,0H60.2z M128.5,565.6l-1-6.6l0,0L128.5,565.6z M95,521.3
		L97,515l0,0L95,521.3z M91,513.3l6.3,2.1L91,513.3z M184.2,419.6l1,6.6L184.2,419.6z M198.4,417.4l1,6.6l6.8-1.1l-1.3-6.7
		L198.4,417.4z M158.5,213.5l6.4-1.2l0,0L158.5,213.5z M189.7,186.3l-2.9,6l0,0L189.7,186.3z M369,274.5l-2.9,6l2.8,1.3l2.8-1.2
		L369,274.5z M590,272.9l-2.6,6.1l2.8,1.2l2.7-1.3L590,272.9z M808.4,212.4c2.3-12.1-2.2-23.3-10.1-30.1c-7.9-6.9-19.6-9.6-30.5-4.3
		l5.8,11.9c5.6-2.8,11.5-1.6,16,2.3c4.5,3.9,7.3,10.4,5.8,17.6L808.4,212.4z M767.6,420.7l40.8-208.3l-13-2.6l-40.8,208.3
		L767.6,420.7z M763.5,413.1l-1.3-0.2l-2.1,13l1.3,0.2L763.5,413.1z M862,511.2c-5.5-16.2-16-38.4-32.1-57.6
		c-16-19.3-38.1-36.1-66.6-40.4l-2.1,13c24.2,3.8,43.6,18.2,58.4,36s24.7,38.4,29.6,53.3L862,511.2z M853.7,527.6
		c6.7-2.2,10.7-9.4,8.3-16.4l-12.5,4.3c0,0,0,0,0-0.1c0-0.1,0-0.1,0-0.1c0-0.1,0.1-0.1,0.1-0.1L853.7,527.6z M819.2,559.2
		c-6.7-1.1-11.5-2.3-14.7-3.5c-1.6-0.6-2.7-1.2-3.4-1.7c-0.4-0.2-0.6-0.5-0.7-0.6c-0.1-0.1-0.2-0.2-0.2-0.2c0.4,0.5,0.1,1.1,0.2,0.7
		c0.4-0.7,1.3-2.1,3.8-3.9c4.6-3.6,12.3-7.8,21.4-11.8c9-4,19.1-7.7,28.3-10.7l-4.1-12.5c-9.6,3.2-20,6.9-29.5,11.2
		c-9.4,4.1-18.3,8.7-24.3,13.5c-2.9,2.3-5.8,5.2-7.4,8.5c-1.8,3.8-2.1,8.3,0.7,12.3c2.3,3.5,6.3,5.8,10.6,7.4
		c4.5,1.7,10.3,3.2,17.5,4.3L819.2,559.2z M893.1,684.8c-0.1-21-3.5-49.7-14.2-74.3c-10.7-24.8-29.1-46.5-59.6-51.3l-2.1,13
		c24.2,3.8,39.8,21,49.6,43.5s13.1,49.2,13.2,69.2L893.1,684.8z M875.7,696.9c8,2.8,17.4-2.6,17.4-12.1l-13.2,0.1l0,0v-0.1
		c0-0.1,0.1-0.1,0.1-0.2l0,0l0,0c0,0,0,0-0.1,0L875.7,696.9z M760.9,693.4c76.9-5.8,96.2-2.9,114.8,3.5l4.4-12.5
		c-21.4-7.4-43.1-10-120.1-4.1L760.9,693.4z M635.7,764.7c42.9-54.8,86.4-68.4,125.2-71.3l-1-13.1c-42,3.2-89.1,18.2-134.6,76.3
		L635.7,764.7z M618.6,781.1l16.5-15.7l-9.1-9.6l-16.5,15.7L618.6,781.1z M479.7,905.5c64.6,0,118.3-53.8,140.5-127.2l-12.6-3.9
		c-21.4,70.4-71.4,117.8-127.9,117.8L479.7,905.5L479.7,905.5z M345.6,796.9c25.1,63.6,75.1,108.6,134.1,108.6v-13.2
		c-51.6,0-97.9-39.6-121.8-100.3L345.6,796.9z M311.6,765.4l35.6,33.8l9.1-9.6l-35.6-33.8L311.6,765.4z M185.8,693.4
		c38.9,2.9,82.3,16.5,125.2,71.3l10.4-8.1c-45.4-58.1-92.6-73.1-134.6-76.3L185.8,693.4z M71,696.9c18.6-6.4,37.9-9.2,114.8-3.5
		l1-13.1c-77-5.8-98.7-3.3-120.1,4.1L71,696.9z M53.7,684.8c0,9.5,9.4,14.9,17.4,12.1l-4.4-12.5h-0.1l0,0l0,0c0,0,0.1,0.1,0.1,0.2
		v0.1c0,0,0,0.1,0,0H53.7z M127.5,559.2c-30.4,4.7-48.8,26.5-59.6,51.3c-10.7,24.7-14.2,53.3-14.3,74.3l13.2,0.1
		c0.1-20,3.4-46.6,13.2-69.2c9.7-22.5,25.3-39.7,49.6-43.5L127.5,559.2z M92.9,527.6c9.2,3,19.3,6.7,28.4,10.7
		c9.1,4,16.8,8.1,21.4,11.8c2.3,1.8,3.4,3.3,3.8,3.9c0.1,0.2-0.1-0.4,0.2-0.7c0,0,0,0.1-0.2,0.2c-0.1,0.1-0.4,0.4-0.7,0.6
		c-0.7,0.5-1.8,1.1-3.4,1.7c-3.3,1.2-8,2.4-14.7,3.5l2.1,13c7.2-1.1,13-2.6,17.5-4.3c4.3-1.7,8.3-4,10.6-7.4c2.7-4,2.6-8.5,0.7-12.3
		c-1.6-3.3-4.5-6.2-7.4-8.5c-6.1-4.7-14.9-9.5-24.3-13.5c-9.5-4.1-20-8-29.5-11.2L92.9,527.6z M84.6,511.2c-2.3,7,1.6,14.2,8.3,16.4
		l4.1-12.5c0,0,0,0,0.1,0.1v0.1c0,0.1,0,0.1,0,0.1L84.6,511.2z M183.3,413.1c-28.4,4.4-50.4,21.3-66.6,40.4
		c-16,19.2-26.6,41.4-32.1,57.6l12.5,4.3c5-15.1,14.8-35.6,29.6-53.3s34.3-32.2,58.4-36L183.3,413.1z M197.3,410.9l-14.2,2.2l2.1,13
		l14.2-2.2L197.3,410.9z M151.9,214.7l40,203.9l13-2.6l-40-203.9L151.9,214.7z M192.6,180.4c-11.1-5.5-22.6-2.7-30.5,4.3
		s-12.5,18.1-10.1,30.1l13-2.6c-1.5-7.3,1.3-13.7,5.8-17.6s10.4-5.1,16-2.3L192.6,180.4z M371.9,268.5l-179.3-88.2l-5.8,11.9
		l179.3,88.2L371.9,268.5z M481.3,244.5c-41.1,0-80,8.6-115,24l5.3,12.1c33.3-14.7,70.4-22.8,109.8-22.8v-13.4H481.3z M592.6,266.7
		c-34-14.3-71.5-22.3-111.1-22.3v13.2c37.8,0,73.7,7.7,106,21.3L592.6,266.7z M767.7,178L587,267l5.8,11.9L773.5,190L767.7,178z"/>
	<path class="st2" d="M489.9,801c-5.2,6.7-15.2,6.9-20.6,0.4l-35.2-42.6c-7-8.5-1.1-21.5,10-21.6l69.1-1.2
		c11.1-0.2,17.5,12.5,10.7,21.3L489.9,801z"/>
	<path class="st3" d="M358.6,166.4L430.3,89h-71.7V74.9H450v14.2l-72.3,77.4H450v14.1h-91.3V166.4z M479.3,164.7l83.4-116.5h-83.4
		V32.5h103.6v15.9l-83.9,116.5h83.9v15.7H479.3V164.7z"/>
</g>
</svg>
