<svg width="24" height="24" viewBox="0 0 24 24" fill="none" xmlns="http://www.w3.org/2000/svg">
<path d="M13.3716 6.65565C13.0896 5.13474 10.9104 5.13475 10.6284 6.65565C10.5713 6.96366 10.1955 7.08577 9.96828 6.87014C8.84623 5.80543 7.08318 7.08636 7.74905 8.48251C7.8839 8.76526 7.65164 9.08495 7.34105 9.04407C5.80747 8.84223 5.13404 10.9148 6.49338 11.6529C6.76868 11.8024 6.76868 12.1976 6.49338 12.3471C5.13404 13.0852 5.80747 15.1578 7.34105 14.9559C7.65164 14.9151 7.8839 15.2347 7.74905 15.5175C7.08318 16.9136 8.84623 18.1946 9.96828 17.1299C10.1955 16.9142 10.5713 17.0363 10.6284 17.3444C10.9104 18.8653 13.0896 18.8653 13.3716 17.3444C13.4287 17.0363 13.8045 16.9142 14.0317 17.1299C15.1538 18.1946 16.9168 16.9136 16.2509 15.5175C16.1161 15.2347 16.3484 14.9151 16.6589 14.9559C18.1925 15.1578 18.866 13.0852 17.5066 12.3471C17.2313 12.1976 17.2313 11.8024 17.5066 11.6529C18.866 10.9148 18.1925 8.84223 16.6589 9.04407C16.3484 9.08495 16.1161 8.76526 16.2509 8.48251C16.9168 7.08636 15.1538 5.80543 14.0317 6.87014C13.8045 7.08577 13.4287 6.96366 13.3716 6.65565Z" stroke="#4E8098"/>
<path d="M9.5 14.5L14.5 9.5" stroke="#4E8098" stroke-width="1.5" stroke-linecap="round"/>
<circle cx="13.25" cy="14.5" r="1.25" fill="#4E8098"/>
<circle cx="10.75" cy="9.5" r="1.25" fill="#4E8098"/>
</svg>
