<svg width="47" height="46" viewBox="0 0 47 46" fill="none" xmlns="http://www.w3.org/2000/svg">
<path d="M20.071 5.51299C21.4287 2.13226 26.2146 2.13226 27.5722 5.51299L30.3207 12.3575C30.8988 13.7972 32.25 14.7788 33.7979 14.8838L41.1567 15.3828C44.7915 15.6292 46.2704 20.1809 43.4747 22.5167L37.8145 27.2458C36.624 28.2405 36.1079 29.8289 36.4864 31.3335L38.2859 38.4863C39.1747 42.0194 35.3028 44.8325 32.2173 42.8954L25.9706 38.9736C24.6567 38.1487 22.9865 38.1487 21.6726 38.9736L15.4259 42.8954C12.3404 44.8325 8.46854 42.0194 9.35736 38.4863L11.1568 31.3335C11.5353 29.8289 11.0192 28.2405 9.82867 27.2458L4.16852 22.5167C1.37278 20.1809 2.8517 15.6292 6.48649 15.3828L13.8454 14.8838C15.3932 14.7788 16.7444 13.7971 17.3225 12.3575L20.071 5.51299Z" stroke="#FCF7F8" stroke-width="4.04167"/>
</svg>
