<?xml version="1.0" encoding="utf-8"?>
<!-- Generator: Adobe Illustrator 28.2.0, SVG Export Plug-In . SVG Version: 6.00 Build 0)  -->
<svg version="1.1" id="Camada_1" xmlns="http://www.w3.org/2000/svg" xmlns:xlink="http://www.w3.org/1999/xlink" x="0px" y="0px"
	 viewBox="0 0 60 60" style="enable-background:new 0 0 60 60;" xml:space="preserve">
<style type="text/css">
	.st0{fill:#A31822;}
</style>
<path class="st0" d="M59.45,21.23c-1.51-4.1-4.68-5.51-8.62-5.23c-6.97,0.49-11.22-2.13-12.75-9.28C37.19,2.63,34.29-0.11,29.79,0
	c-4.24,0.1-6.85,3-7.63,6.73c-1.51,7.24-5.89,9.77-12.78,9.23c-0.84-0.07-1.73,0.04-2.56,0.2c-6.17,1.23-9.28,8.92-4.42,12.66
	c7.36,5.67,11.42,11.34,6.36,19.08c-0.2,4.38,1.03,6.73,3.62,8.34c3.1,1.93,6.33,1.78,8.99-0.48c5.62-4.76,10.95-5.73,16.85-0.41
	c2.93,2.64,6.51,3.12,10.02,0.56c3.53-2.58,4.11-6.38,2.59-9.8c-3.14-7.03-0.74-11.54,5.13-15.47
	C59.13,28.53,60.99,25.44,59.45,21.23z M50.89,28.09c-6.86,4.33-8.82,10.02-5.59,17.52c0.84,1.95,1.82,4.29-0.18,5.96
	c-2.26,1.89-4.11-0.29-5.58-1.56c-6.74-5.83-13.12-4.81-19.57,0.46c-1.22,1-2.63,2.45-4.58,1.42c-1.65-0.87-1.63-2.34-1.36-3.47
	c0.42-1.46,0.62-2.52,1.02-3.51c2.82-7,1.12-12.37-5.38-16.44c-1.82-1.13-4.58-2.61-3.74-5.4c0.9-3,4.04-2.04,6.13-1.98
	c7.84,0.24,12.45-3.37,14.36-10.84c0.53-2.07,1.08-4.71,3.49-4.91c2.64-0.22,3.28,2.53,3.74,4.53c1.91,8.25,7.19,11.59,15.37,11.25
	c2.01-0.08,4.75-0.53,5.45,2.16C55.14,25.9,52.57,27.03,50.89,28.09z"/>
</svg>
