<svg width="43" height="42" viewBox="0 0 43 42" fill="none" xmlns="http://www.w3.org/2000/svg">
<path d="M17.7435 3.14702C19.1039 -0.240763 23.8998 -0.240764 25.2603 3.14702L28.0146 10.0058C28.5939 11.4485 29.9479 12.4322 31.499 12.5374L38.8732 13.0374C42.5156 13.2844 43.9976 17.8455 41.196 20.1863L35.524 24.9252C34.331 25.922 33.8138 27.5137 34.1931 29.0214L35.9963 36.1892C36.887 39.7296 33.007 42.5486 29.9151 40.6075L23.6554 36.6775C22.3387 35.8509 20.6651 35.8509 19.3484 36.6775L13.0886 40.6075C9.99672 42.5486 6.11676 39.7296 7.00743 36.1892L8.81066 29.0214C9.18994 27.5137 8.67276 25.922 7.47973 24.9252L1.80776 20.1863C-0.993818 17.8455 0.488194 13.2844 4.13057 13.0374L11.5048 12.5374C13.0559 12.4322 14.4099 11.4485 14.9892 10.0058L17.7435 3.14702Z" fill="#A31621"/>
</svg>
