<?xml version="1.0" encoding="utf-8"?>
<!-- Generator: Adobe Illustrator 28.2.0, SVG Export Plug-In . SVG Version: 6.00 Build 0)  -->
<svg version="1.1" id="Camada_1" xmlns="http://www.w3.org/2000/svg" xmlns:xlink="http://www.w3.org/1999/xlink" x="0px" y="0px"
	 viewBox="0 0 60 60" style="enable-background:new 0 0 60 60;" xml:space="preserve">
<style type="text/css">
	.st0{fill:#A31621;}
</style>
<path class="st0" d="M24.87,3.79c1.93-4.8,8.73-4.8,10.66,0l3.91,9.73c0.82,2.05,2.74,3.44,4.94,3.59l10.46,0.71
	c5.17,0.35,7.27,6.82,3.29,10.14l-8.04,6.72c-1.69,1.41-2.43,3.67-1.89,5.81l2.56,10.17c1.26,5.02-4.24,9.02-8.62,6.27l-8.88-5.57
	c-1.87-1.17-4.24-1.17-6.11,0l-8.88,5.57c-4.38,2.75-9.89-1.25-8.62-6.27l2.56-10.17c0.54-2.14-0.2-4.4-1.89-5.81l-8.04-6.72
	c-3.97-3.32-1.87-9.79,3.29-10.14l10.46-0.71c2.2-0.15,4.12-1.54,4.94-3.59L24.87,3.79z"/>
</svg>
