<?xml version="1.0" encoding="utf-8"?>
<!-- Generator: Adobe Illustrator 28.2.0, SVG Export Plug-In . SVG Version: 6.00 Build 0)  -->
<svg version="1.1" id="Camada_1" xmlns="http://www.w3.org/2000/svg" xmlns:xlink="http://www.w3.org/1999/xlink" x="0px" y="0px"
	 viewBox="0 0 60 60" style="enable-background:new 0 0 60 60;" xml:space="preserve">
<style type="text/css">
	.st0{fill:#A31721;}
</style>
<path class="st0" d="M51.64,16.05c-7.29,0.33-12.17-1.99-13.73-9.85C37.15,2.37,34.08-0.09,29.92,0c-3.81,0.09-6.5,2.17-7.39,5.97
	c-1.7,7.26-5.87,10.78-13.58,10.04c-3.69-0.35-6.73,1.28-8.03,5.07c-1.37,3.98-0.19,7.39,3.3,9.48c6.61,3.96,8.08,9.13,5.03,16.1
	c-1.54,3.52-0.43,6.85,2.58,9.17c3.06,2.35,6.68,2.39,9.51-0.05c5.9-5.08,11.34-5.6,17.35-0.14c2.73,2.48,6.27,2.57,9.52,0.32
	c3.04-2.11,3.61-5.14,2.97-8.52c-0.28-1.47-0.62-2.94-1.15-4.34c-1.67-4.39-0.66-7.6,3.37-10.34c3.09-2.1,6.55-4.36,6.6-9.92
	C59.27,19.03,56.87,15.81,51.64,16.05z M52.78,26.61c-0.95,0.86-1.89,1.77-2.97,2.44c-5.77,3.6-7.22,8.5-4.97,14.85
	c0.88,2.48,2.81,5.65,0.05,7.68c-2.53,1.86-4.43-1.57-6.73-2.31c-7.38-2.39-8.47-7.72-8.02-14.72c0.6-9.36,0.15-18.78,0.15-29.35
	c1.53,1.26,2.28,1.55,2.37,1.99c2.12,10.07,8.07,14.99,18.54,14.03c1.31-0.12,2.58,0.27,3.2,1.64
	C55.21,24.66,53.87,25.62,52.78,26.61z"/>
</svg>
