<svg width="87" height="87" viewBox="0 0 87 87" fill="none" xmlns="http://www.w3.org/2000/svg">
<mask id="mask0_787_1679" style="mask-type:alpha" maskUnits="userSpaceOnUse" x="14" y="10" width="30" height="59">
<rect x="14.8652" y="10.967" width="28.8456" height="57.6913" rx="4.0501" fill="white"/>
</mask>
<g mask="url(#mask0_787_1679)">
<path d="M39.9525 23.9313C41.3129 20.5435 46.1088 20.5435 47.4692 23.9313L50.2235 30.7901C50.8029 32.2328 52.1569 33.2165 53.7079 33.3217L61.0822 33.8217C64.7245 34.0687 66.2066 38.6298 63.405 40.9706L57.733 45.7095C56.54 46.7063 56.0228 48.298 56.4021 49.8057L58.2053 56.9735C59.096 60.5139 55.216 63.3329 52.1241 61.3918L45.8643 57.4618C44.5477 56.6352 42.8741 56.6352 41.5574 57.4618L35.2976 61.3918C32.2057 63.3329 28.3257 60.5139 29.2164 56.9735L31.0196 49.8057C31.3989 48.298 30.8817 46.7063 29.6887 45.7095L24.0167 40.9706C21.2152 38.6298 22.6972 34.0687 26.3396 33.8217L33.7138 33.3217C35.2649 33.2165 36.6188 32.2328 37.1982 30.7901L39.9525 23.9313Z" fill="#A31621"/>
</g>
<path d="M39.9525 23.9312C41.3129 20.5434 46.1088 20.5434 47.4692 23.9312L50.2235 30.79C50.8029 32.2327 52.1569 33.2164 53.7079 33.3216L61.0822 33.8216C64.7245 34.0685 66.2066 38.6297 63.405 40.9704L57.733 45.7094C56.54 46.7062 56.0228 48.2979 56.4021 49.8056L58.2053 56.9734C59.096 60.5138 55.216 63.3328 52.1241 61.3916L45.8643 57.4617C44.5477 56.6351 42.8741 56.6351 41.5574 57.4617L35.2976 61.3916C32.2057 63.3328 28.3257 60.5138 29.2164 56.9734L31.0196 49.8056C31.3989 48.2979 30.8817 46.7062 29.6887 45.7094L24.0167 40.9704C21.2152 38.6297 22.6972 34.0685 26.3396 33.8216L33.7138 33.3216C35.2649 33.2164 36.6188 32.2327 37.1982 30.79L39.9525 23.9312Z" stroke="#A31621" stroke-width="4.0501"/>
</svg>
