<svg width="219" height="226" viewBox="0 0 219 226" fill="none" xmlns="http://www.w3.org/2000/svg">
<g opacity="0.2">
<path d="M72.7333 102.637C72.7333 102.637 75.8582 111.194 83.7349 111.194C91.6117 111.194 95.3478 102.637 95.3478 102.637" stroke="#274553" stroke-width="2.51724" stroke-linecap="round"/>
<path d="M73.1 104.471L70.8996 105.693" stroke="#274553" stroke-width="2.51724" stroke-linecap="round"/>
<path d="M83.735 114.25V111.194" stroke="#274553" stroke-width="2.51724" stroke-linecap="round"/>
<path d="M94.7364 104.471L97.1812 105.693" stroke="#274553" stroke-width="2.51724" stroke-linecap="round"/>
<path d="M77.1873 109.28L75.1779 111.805" stroke="#274553" stroke-width="2.51724" stroke-linecap="round"/>
<path d="M91.0691 109.36L92.9026 111.194" stroke="#274553" stroke-width="2.51724" stroke-linecap="round"/>
<path d="M123.654 102.637C123.654 102.637 126.779 111.194 134.656 111.194C142.533 111.194 146.269 102.637 146.269 102.637" stroke="#274553" stroke-width="2.51724" stroke-linecap="round"/>
<path d="M124.021 104.471L121.82 105.693" stroke="#274553" stroke-width="2.51724" stroke-linecap="round"/>
<path d="M134.656 114.25V111.194" stroke="#274553" stroke-width="2.51724" stroke-linecap="round"/>
<path d="M145.657 104.471L148.102 105.693" stroke="#274553" stroke-width="2.51724" stroke-linecap="round"/>
<path d="M128.108 109.28L126.099 111.805" stroke="#274553" stroke-width="2.51724" stroke-linecap="round"/>
<path d="M141.99 109.36L143.824 111.194" stroke="#274553" stroke-width="2.51724" stroke-linecap="round"/>
<path d="M136.486 82.9262H82.7905C76.1048 82.9262 61.0439 88.5537 61.0439 103.086C61.0438 118.16 67.0748 127.277 82.7905 127.277C98.5063 127.277 104.262 116.474 107.019 113.453C108.191 112.169 108.846 111.593 110.156 111.593C111.465 111.593 111.819 112.353 112.912 113.453C117.359 117.929 120.633 127.277 136.486 127.277C149.445 127.277 157.958 121.384 157.958 103.086C157.958 88.3333 143.471 83.5022 136.486 82.9262Z" stroke="#274553" stroke-width="2.51724"/>
<path d="M172.176 41.9555L173.412 42.1973V42.1973L172.176 41.9555ZM166.226 36.7727L166.781 37.9021V37.9021L166.226 36.7727ZM164.404 81.641L163.169 81.3991L162.918 82.6834L164.211 82.8846L164.404 81.641ZM164.657 81.6803L164.851 80.4367L164.657 81.6803ZM182.441 99.5323L183.634 99.1315L183.634 99.1315L182.441 99.5323ZM181.661 101.058L182.052 102.254L181.661 101.058ZM175.275 109.516L175.468 108.273L175.275 109.516ZM188.287 132.226L189.545 132.22L188.287 132.226ZM186.648 133.337L187.06 132.148L186.648 133.337ZM164.268 132.609L164.174 131.354L164.268 132.609ZM139.518 146.673L140.383 147.587L140.451 147.523L140.509 147.449L139.518 146.673ZM136.366 149.658L135.5 148.745L135.258 148.974L135.161 149.293L136.366 149.658ZM86.3947 153.103L87.5655 152.641L87.463 152.381L87.2602 152.189L86.3947 153.103ZM79.6049 146.673L78.614 147.449L78.6716 147.523L78.7395 147.587L79.6049 146.673ZM54.8544 132.609L54.9492 131.354L54.8544 132.609ZM32.4751 133.337L32.8875 134.526H32.8875L32.4751 133.337ZM30.8362 132.226L29.5776 132.22L30.8362 132.226ZM43.8483 109.516L43.6547 108.273H43.6547L43.8483 109.516ZM37.4617 101.058L37.8527 99.8616H37.8527L37.4617 101.058ZM36.6821 99.5323L35.489 99.1315H35.489L36.6821 99.5323ZM54.4655 81.6803L54.6591 82.924L54.4655 81.6803ZM57.1678 81.2599L57.3613 82.5035L58.6544 82.3023L58.4029 81.018L57.1678 81.2599ZM49.5576 42.4017L50.7928 42.1598V42.1598L49.5576 42.4017ZM55.5082 37.2189L56.0638 36.0896V36.0896L55.5082 37.2189ZM89.6728 54.0251L89.1173 55.1545L89.6435 55.4134L90.1801 55.177L89.6728 54.0251ZM131.791 53.7117L131.302 54.8712L131.831 55.0948L132.347 54.8411L131.791 53.7117ZM173.412 42.1973C173.863 39.8941 172.991 37.7617 171.485 36.4501C169.971 35.132 167.765 34.6128 165.67 35.6434L166.781 37.9021C167.85 37.3764 168.98 37.6068 169.831 38.3483C170.69 39.0963 171.212 40.3333 170.941 41.7136L173.412 42.1973ZM165.639 81.8829L173.412 42.1973L170.941 41.7136L163.169 81.3991L165.639 81.8829ZM164.851 80.4367L164.598 80.3973L164.211 82.8846L164.464 82.924L164.851 80.4367ZM183.634 99.1315C182.596 96.0418 180.588 91.8221 177.524 88.1536C174.459 84.4832 170.262 81.2786 164.851 80.4367L164.464 82.924C169.076 83.6417 172.771 86.3887 175.592 89.7671C178.415 93.1475 180.287 97.074 181.248 99.933L183.634 99.1315ZM182.052 102.254C183.323 101.839 184.083 100.47 183.634 99.1315L181.248 99.933C181.247 99.9306 181.245 99.9213 181.246 99.9084C181.247 99.8965 181.25 99.8868 181.254 99.8798C181.261 99.8658 181.27 99.8616 181.27 99.8616L182.052 102.254ZM175.468 108.273C174.185 108.073 173.274 107.84 172.657 107.6C172.35 107.482 172.141 107.37 172.003 107.278C171.935 107.232 171.89 107.194 171.861 107.167C171.833 107.14 171.823 107.126 171.823 107.126C171.882 107.213 171.84 107.328 171.866 107.275C171.928 107.145 172.123 106.889 172.574 106.53C173.457 105.828 174.906 105.051 176.648 104.288C178.367 103.535 180.287 102.831 182.052 102.254L181.27 99.8616C179.45 100.456 177.45 101.189 175.638 101.983C173.848 102.767 172.154 103.648 171.007 104.56C170.443 105.009 169.902 105.55 169.596 106.186C169.253 106.9 169.213 107.751 169.731 108.526C170.176 109.19 170.926 109.629 171.746 109.947C172.598 110.278 173.706 110.546 175.081 110.76L175.468 108.273ZM189.545 132.22C189.526 128.207 188.863 122.751 186.826 118.046C184.784 113.33 181.262 109.174 175.468 108.273L175.081 110.76C179.698 111.478 182.663 114.767 184.516 119.046C186.373 123.335 187.01 128.424 187.028 132.232L189.545 132.22ZM186.235 134.526C187.766 135.057 189.554 134.033 189.545 132.22L187.028 132.232C187.028 132.234 187.028 132.229 187.03 132.221C187.032 132.212 187.036 132.202 187.041 132.193C187.052 132.173 187.065 132.162 187.072 132.157C187.08 132.152 187.083 132.152 187.082 132.152C187.082 132.152 187.08 132.152 187.077 132.152C187.074 132.152 187.069 132.151 187.06 132.148L186.235 134.526ZM164.363 133.864C179.025 132.757 182.696 133.299 186.235 134.526L187.06 132.148C182.983 130.734 178.844 130.247 164.174 131.354L164.363 133.864ZM140.509 147.449C148.681 137.014 156.963 134.423 164.363 133.864L164.174 131.354C156.161 131.959 147.189 134.836 138.527 145.897L140.509 147.449ZM137.231 150.572L140.383 147.587L138.653 145.759L135.5 148.745L137.231 150.572ZM110.781 174.269C123.084 174.269 133.319 164.026 137.57 150.024L135.161 149.293C131.087 162.711 121.547 171.752 110.781 171.752V174.269ZM85.224 153.565C90.0134 165.702 99.5385 174.269 110.781 174.269V171.752C100.938 171.752 92.1307 164.21 87.5655 152.641L85.224 153.565ZM78.7395 147.587L85.5293 154.017L87.2602 152.189L80.4703 145.759L78.7395 147.587ZM54.7597 133.864C62.1594 134.423 70.442 137.014 78.614 147.449L80.5958 145.897C71.9334 134.836 62.9618 131.959 54.9492 131.354L54.7597 133.864ZM32.8875 134.526C36.4265 133.299 40.0979 132.757 54.7597 133.864L54.9492 131.354C40.2792 130.247 36.1401 130.734 32.0628 132.148L32.8875 134.526ZM29.5776 132.22C29.5691 134.033 31.3572 135.057 32.8875 134.526L32.0628 132.148C32.0543 132.151 32.0486 132.152 32.0457 132.152C32.0427 132.152 32.0411 132.152 32.0408 132.152C32.0397 132.152 32.0434 132.152 32.0506 132.157C32.0582 132.162 32.0709 132.173 32.0816 132.193C32.0869 132.202 32.0906 132.212 32.0928 132.221C32.095 132.229 32.0948 132.234 32.0948 132.232L29.5776 132.22ZM43.6547 108.273C37.8609 109.174 34.3388 113.33 32.2971 118.046C30.2602 122.751 29.5965 128.207 29.5776 132.22L32.0948 132.232C32.1128 128.424 32.75 123.335 34.6072 119.046C36.4597 114.767 39.4252 111.478 44.0418 110.76L43.6547 108.273ZM37.0708 102.254C38.836 102.831 40.7563 103.535 42.4752 104.288C44.217 105.051 45.6657 105.828 46.5487 106.53C46.9998 106.889 47.1948 107.145 47.2573 107.275C47.2825 107.328 47.2414 107.213 47.2995 107.126C47.2997 107.126 47.2901 107.14 47.2617 107.167C47.2331 107.194 47.188 107.232 47.1203 107.278C46.9824 107.37 46.7726 107.482 46.4663 107.6C45.8494 107.84 44.9383 108.073 43.6547 108.273L44.0418 110.76C45.4171 110.546 46.5247 110.278 47.3767 109.947C48.1971 109.629 48.9472 109.19 49.3917 108.526C49.9098 107.751 49.8694 106.9 49.5267 106.186C49.2212 105.55 48.6795 105.009 48.1158 104.56C46.969 103.648 45.275 102.767 43.4853 101.983C41.6727 101.189 39.6726 100.456 37.8527 99.8616L37.0708 102.254ZM35.489 99.1315C35.0395 100.47 35.8 101.839 37.0708 102.254L37.8527 99.8616C37.8526 99.8616 37.862 99.8658 37.8692 99.8798C37.8729 99.8868 37.8761 99.8965 37.8771 99.9084C37.8782 99.9214 37.8761 99.9306 37.8753 99.933L35.489 99.1315ZM54.272 80.4367C48.8612 81.2786 44.6636 84.4832 41.5985 88.1536C38.535 91.8221 36.5269 96.0418 35.489 99.1315L37.8753 99.933C38.8356 97.074 40.7077 93.1475 43.5306 89.7671C46.3519 86.3887 50.0469 83.6417 54.6591 82.924L54.272 80.4367ZM56.9742 80.0162L54.272 80.4367L54.6591 82.924L57.3613 82.5035L56.9742 80.0162ZM48.3225 42.6435L55.9326 81.5018L58.4029 81.018L50.7928 42.1598L48.3225 42.6435ZM56.0638 36.0896C53.9688 35.059 51.7627 35.5782 50.2494 36.8963C48.7435 38.2079 47.8714 40.3403 48.3225 42.6435L50.7928 42.1598C50.5225 40.7795 51.0439 39.5425 51.9027 38.7945C52.754 38.053 53.884 37.8226 54.9527 38.3483L56.0638 36.0896ZM90.2284 52.8958L56.0638 36.0896L54.9527 38.3483L89.1173 55.1545L90.2284 52.8958ZM111.095 48.3002C103.263 48.3002 95.8305 49.9379 89.1656 52.8733L90.1801 55.177C96.5286 52.381 103.616 50.8174 111.095 50.8174V48.3002ZM132.281 52.5522C125.809 49.8188 118.638 48.3002 111.095 48.3002V50.8174C118.298 50.8174 125.136 52.2673 131.302 54.8712L132.281 52.5522ZM165.67 35.6434L131.236 52.5823L132.347 54.8411L166.781 37.9021L165.67 35.6434Z" fill="#274553"/>
<path d="M112.73 154.371C111.744 155.648 109.828 155.68 108.799 154.437L102.079 146.317C100.733 144.691 101.866 142.23 103.976 142.195L117.14 141.974C119.251 141.939 120.465 144.36 119.175 146.03L112.73 154.371Z" stroke="#274553" stroke-width="2.51724"/>
<path d="M5.84 202.043V198.74H13.4521C14.4993 198.74 15.4257 198.526 16.2312 198.096C17.0635 197.666 17.708 197.062 18.1644 196.283C18.6477 195.505 18.8894 194.578 18.8894 193.504C18.8894 192.43 18.6477 191.504 18.1644 190.725C17.708 189.947 17.0635 189.343 16.2312 188.913C15.4257 188.483 14.4993 188.269 13.4521 188.269H5.84V184.966H13.6938C15.4122 184.966 16.9427 185.315 18.2852 186.013C19.6546 186.711 20.7286 187.705 21.5073 188.994C22.3128 190.256 22.7156 191.759 22.7156 193.504C22.7156 195.223 22.3128 196.727 21.5073 198.015C20.7286 199.277 19.6546 200.271 18.2852 200.996C16.9427 201.694 15.4122 202.043 13.6938 202.043H5.84ZM3.30262 212.917V184.966H7.08855V212.917H3.30262ZM27.1236 212.917V193.786H30.7484V212.917H27.1236ZM28.936 189.96C28.2647 189.96 27.7143 189.745 27.2847 189.316C26.8551 188.859 26.6403 188.295 26.6403 187.624C26.6403 186.98 26.8551 186.443 27.2847 186.013C27.7143 185.557 28.2647 185.328 28.936 185.328C29.6073 185.328 30.1577 185.557 30.5873 186.013C31.0169 186.443 31.2317 186.98 31.2317 187.624C31.2317 188.295 31.0169 188.859 30.5873 189.316C30.1577 189.745 29.6073 189.96 28.936 189.96ZM33.6738 221.335C32.4386 221.335 31.4049 221.134 30.5725 220.731C29.7133 220.328 28.9481 219.751 28.2768 218.999L30.6128 216.623C30.9887 217.079 31.4049 217.415 31.8614 217.63C32.291 217.845 32.8146 217.952 33.4321 217.952C34.2376 217.952 34.9357 217.697 35.5265 217.187C36.1172 216.703 36.4125 215.965 36.4125 214.971V193.786H40.0374V214.931C40.0374 216.327 39.742 217.495 39.1513 218.435C38.5606 219.375 37.7819 220.087 36.8153 220.57C35.8487 221.08 34.8015 221.335 33.6738 221.335ZM38.2652 189.96C37.6208 189.96 37.0838 189.745 36.6542 189.316C36.2246 188.859 36.0098 188.295 36.0098 187.624C36.0098 186.98 36.2246 186.443 36.6542 186.013C37.0838 185.557 37.6208 185.328 38.2652 185.328C38.9365 185.328 39.4869 185.557 39.9165 186.013C40.3461 186.443 40.5609 186.98 40.5609 187.624C40.5609 188.295 40.3461 188.859 39.9165 189.316C39.4869 189.745 38.9365 189.96 38.2652 189.96ZM53.5084 213.32C51.7631 213.32 50.1789 212.891 48.7558 212.031C47.3327 211.145 46.205 209.95 45.3726 208.447C44.5671 206.943 44.1644 205.252 44.1644 203.372C44.1644 201.493 44.5671 199.801 45.3726 198.297C46.205 196.794 47.3193 195.599 48.7155 194.713C50.1386 193.827 51.7362 193.384 53.5084 193.384C54.9583 193.384 56.2471 193.692 57.3749 194.31C58.5294 194.901 59.4558 195.733 60.1539 196.807C60.852 197.854 61.2413 199.076 61.3219 200.472V206.232C61.2413 207.601 60.852 208.823 60.1539 209.897C59.4826 210.971 58.5697 211.817 57.4151 212.434C56.2874 213.025 54.9852 213.32 53.5084 213.32ZM54.1125 209.897C55.9115 209.897 57.3614 209.293 58.4623 208.084C59.5632 206.849 60.1136 205.278 60.1136 203.372C60.1136 202.056 59.8585 200.915 59.3484 199.949C58.8651 198.955 58.1669 198.19 57.254 197.653C56.3411 197.089 55.2805 196.807 54.0722 196.807C52.864 196.807 51.7899 197.089 50.8502 197.653C49.9372 198.217 49.2123 198.995 48.6753 199.989C48.1651 200.955 47.91 202.07 47.91 203.332C47.91 204.621 48.1651 205.762 48.6753 206.755C49.2123 207.722 49.9507 208.487 50.8904 209.051C51.8302 209.615 52.9042 209.897 54.1125 209.897ZM59.872 212.917V207.762L60.5566 203.09L59.872 198.458V193.786H63.5371V212.917H59.872ZM68.8145 212.917V193.786H72.4393V212.917H68.8145ZM81.743 212.917V201.358C81.743 199.935 81.3 198.821 80.4139 198.015C79.5547 197.183 78.4672 196.767 77.1516 196.767C76.2655 196.767 75.4734 196.955 74.7753 197.331C74.0772 197.707 73.5133 198.23 73.0837 198.901C72.6541 199.573 72.4393 200.378 72.4393 201.318L70.9491 200.593C70.9491 199.143 71.2579 197.881 71.8754 196.807C72.5198 195.733 73.3925 194.901 74.4934 194.31C75.5942 193.692 76.8294 193.384 78.1987 193.384C79.5413 193.384 80.7495 193.679 81.8236 194.27C82.9244 194.86 83.7837 195.693 84.4012 196.767C85.0456 197.841 85.3678 199.116 85.3678 200.593V212.917H81.743ZM94.6716 212.917V201.358C94.6716 199.935 94.2285 198.821 93.3425 198.015C92.4832 197.183 91.4092 196.767 90.1204 196.767C89.2343 196.767 88.4288 196.955 87.7038 197.331C87.0057 197.707 86.4419 198.23 86.0123 198.901C85.5826 199.573 85.3678 200.378 85.3678 201.318L83.3138 200.593C83.3943 199.116 83.7837 197.854 84.4818 196.807C85.2067 195.733 86.1331 194.901 87.2608 194.31C88.3885 193.692 89.6237 193.384 90.9662 193.384C92.3624 193.384 93.611 193.679 94.7118 194.27C95.8127 194.86 96.6854 195.693 97.3298 196.767C98.001 197.841 98.3367 199.13 98.3367 200.633V212.917H94.6716ZM110.156 216.784C108.089 216.784 106.545 216.193 105.525 215.012C104.504 213.83 104.102 212.085 104.316 209.776L104.8 204.782C104.907 203.761 104.813 203.01 104.518 202.526C104.222 202.043 103.699 201.801 102.947 201.801H101.819V199.022H102.947C103.699 199.022 104.222 198.781 104.518 198.297C104.813 197.787 104.907 197.035 104.8 196.042L104.316 191.168C104.102 188.832 104.504 187.087 105.525 185.933C106.545 184.751 108.089 184.16 110.156 184.16H112.17V187.02H110.479C109.27 187.02 108.411 187.329 107.901 187.946C107.418 188.564 107.243 189.584 107.377 191.007L107.78 195.438C107.887 196.485 107.847 197.384 107.659 198.136C107.471 198.861 107.082 199.465 106.491 199.949C105.927 200.432 105.122 200.821 104.075 201.117V199.828C105.122 200.043 105.927 200.392 106.491 200.875C107.082 201.358 107.471 201.976 107.659 202.728C107.847 203.453 107.887 204.339 107.78 205.386L107.377 209.937C107.27 211.36 107.458 212.367 107.941 212.958C108.425 213.575 109.27 213.884 110.479 213.884H112.17V216.784H110.156ZM116.932 212.917V184.966H120.718V212.917H116.932ZM127.316 212.917V184.966H129.974L131.102 189.356V212.917H127.316ZM146.649 212.917L129.491 190L129.974 184.966L147.172 207.843L146.649 212.917ZM146.649 212.917L145.521 208.769V184.966H149.307V212.917H146.649ZM156.071 216.784H154.058V213.884H155.749C156.958 213.884 157.803 213.575 158.287 212.958C158.77 212.367 158.958 211.36 158.851 209.937L158.448 205.386C158.367 204.339 158.407 203.453 158.569 202.728C158.757 201.976 159.132 201.358 159.696 200.875C160.287 200.392 161.106 200.043 162.153 199.828V201.117C161.106 200.821 160.287 200.432 159.696 199.949C159.132 199.465 158.757 198.861 158.569 198.136C158.407 197.384 158.367 196.485 158.448 195.438L158.851 191.007C158.985 189.584 158.797 188.564 158.287 187.946C157.803 187.329 156.958 187.02 155.749 187.02H154.058V184.16H156.071C158.139 184.16 159.683 184.751 160.703 185.933C161.75 187.087 162.153 188.832 161.911 191.168L161.428 196.042C161.321 197.035 161.415 197.787 161.71 198.297C162.005 198.781 162.529 199.022 163.281 199.022H164.409V201.801H163.281C162.529 201.801 162.005 202.043 161.71 202.526C161.415 203.01 161.321 203.761 161.428 204.782L161.911 209.776C162.126 212.085 161.724 213.83 160.703 215.012C159.683 216.193 158.139 216.784 156.071 216.784ZM181.818 212.917V201.761C181.818 200.311 181.361 199.116 180.448 198.176C179.535 197.237 178.354 196.767 176.904 196.767C175.937 196.767 175.078 196.982 174.326 197.411C173.574 197.841 172.984 198.432 172.554 199.183C172.124 199.935 171.91 200.794 171.91 201.761L170.419 200.915C170.419 199.465 170.742 198.176 171.386 197.049C172.03 195.921 172.93 195.035 174.085 194.391C175.239 193.719 176.541 193.384 177.991 193.384C179.441 193.384 180.717 193.706 181.818 194.35C182.945 194.995 183.831 195.894 184.476 197.049C185.12 198.203 185.442 199.532 185.442 201.036V212.917H181.818ZM168.285 212.917V184.16H171.91V212.917H168.285ZM198.486 213.32C196.74 213.32 195.156 212.891 193.733 212.031C192.31 211.145 191.182 209.95 190.35 208.447C189.545 206.943 189.142 205.252 189.142 203.372C189.142 201.493 189.545 199.801 190.35 198.297C191.182 196.794 192.297 195.599 193.693 194.713C195.116 193.827 196.714 193.384 198.486 193.384C199.936 193.384 201.225 193.692 202.352 194.31C203.507 194.901 204.433 195.733 205.131 196.807C205.829 197.854 206.219 199.076 206.299 200.472V206.232C206.219 207.601 205.829 208.823 205.131 209.897C204.46 210.971 203.547 211.817 202.393 212.434C201.265 213.025 199.963 213.32 198.486 213.32ZM199.09 209.897C200.889 209.897 202.339 209.293 203.44 208.084C204.541 206.849 205.091 205.278 205.091 203.372C205.091 202.056 204.836 200.915 204.326 199.949C203.842 198.955 203.144 198.19 202.231 197.653C201.318 197.089 200.258 196.807 199.05 196.807C197.841 196.807 196.767 197.089 195.828 197.653C194.915 198.217 194.19 198.995 193.653 199.989C193.142 200.955 192.887 202.07 192.887 203.332C192.887 204.621 193.142 205.762 193.653 206.755C194.19 207.722 194.928 208.487 195.868 209.051C196.808 209.615 197.882 209.897 199.09 209.897ZM204.849 212.917V207.762L205.534 203.09L204.849 198.458V193.786H208.514V212.917H204.849Z" fill="#274553"/>
<path d="M87.7108 33.7878L101.364 19.0468H87.7108V16.3483H105.11V19.0468L91.3356 33.7878H105.11V36.4862H87.7108V33.7878ZM110.693 33.4655L126.602 11.2735H110.693V8.29313H130.428V11.3138L114.438 33.5058H130.428V36.4862H110.693V33.4655Z" fill="#274553"/>
</g>
</svg>
