<?xml version="1.0" encoding="utf-8"?>
<!-- Generator: Adobe Illustrator 28.2.0, SVG Export Plug-In . SVG Version: 6.00 Build 0)  -->
<svg version="1.1" id="Camada_1" xmlns="http://www.w3.org/2000/svg" xmlns:xlink="http://www.w3.org/1999/xlink" x="0px" y="0px"
	 viewBox="0 0 150 150" style="enable-background:new 0 0 150 150;" xml:space="preserve">
<style type="text/css">
	.st0{fill:#18385F;}
	.st1{fill:#19385F;}
</style>
<g>
	<path class="st0" d="M75.5,124.9c-11.6,0-23.3,0-34.9,0c-7.2,0-8.7-1.6-8.7-8.9c0-2.8,0.3-5.7-0.1-8.5c-1.1-8.7,3.2-14.3,10.5-18
		c22.1-11.3,44.3-11.3,66.5,0c7.3,3.7,11.5,9.3,10.5,18c-0.4,3.1,0,6.3-0.1,9.5c-0.1,6-1.8,7.8-7.7,7.9
		C99.4,125,87.5,124.9,75.5,124.9z"/>
	<path class="st0" d="M75.3,69c-11.6-0.1-21.7-10.5-21.7-22.1C53.6,34.6,64.4,25,75.5,25c12.1,0,22.1,10.3,22,22.3
		C97.4,58.9,86.8,69.1,75.3,69z"/>
	<path class="st0" d="M106.8,59.4c0-8.6,7.4-16.1,15.6-16c8.2,0.2,15.8,8,15.7,16.2c-0.1,8.2-7.5,15.5-15.7,15.5
		C113.8,75.2,106.8,68.2,106.8,59.4z"/>
	<path class="st0" d="M44.2,59.6c0,8.5-6.9,15.5-15.3,15.6c-8.4,0.1-16-7.5-16-15.7c0-8.2,7.7-15.9,15.9-16
		C37,43.4,44.2,51,44.2,59.6z"/>
	<path class="st1" d="M149.7,101.1c0.1,6.6,0.2,13.3,0.3,19.9c-2.5,3.3-14.1,5.7-17.3,3.6c-1.4-0.9-1.1-2.3-1.1-3.6
		c0-5.5,0.1-11,0-16.4c-0.1-5.5-1-10.9-4.6-15.4C133.1,87.6,144.7,93.8,149.7,101.1z"/>
	<path class="st1" d="M1,121c0.1-6.6,0.2-13.3,0.2-19.9c4.9-7,15.5-12.9,22.9-12.4c-6.5,9.5-4.6,20.1-4.5,30.4c0,5-1.5,6.5-6.2,6
		C9,124.4,3.8,126.5,1,121z"/>
</g>
</svg>
