<?xml version="1.0" encoding="utf-8"?>
<!-- Generator: Adobe Illustrator 28.2.0, SVG Export Plug-In . SVG Version: 6.00 Build 0)  -->
<svg version="1.1" id="Camada_1" xmlns="http://www.w3.org/2000/svg" xmlns:xlink="http://www.w3.org/1999/xlink" x="0px" y="0px"
	 viewBox="0 0 150 150" style="enable-background:new 0 0 150 150;" xml:space="preserve">
<style type="text/css">
	.st0{fill:#18385F;}
</style>
<g>
	<path class="st0" d="M75.8,113.8c10.6,0,21.3,0.3,31.9-0.1c4.4-0.2,5.6,1.3,6,5.4c0.6,5.3,1,10.6,1.1,15.9c0,2.2-0.5,3.4-3.1,3.2
		c-8.2-0.4-16.1,1.6-23.6,4.7c-3.4,1.4-5.6,0.9-8-1.3c-3.1-2.8-6.1-2.8-9.2,0c-2.4,2.2-4.7,2.6-8,1.2c-7.5-3.1-15.4-5-23.6-4.7
		c-2.1,0.1-3-0.5-3.1-2.7c-0.3-6.7,1.1-13.2,1.8-19.8c0.3-2.6,2.5-1.7,3.9-1.8C53.2,113.7,64.5,113.8,75.8,113.8z"/>
	<path class="st0" d="M143.3,66.1c-10.4-15.8-20.6-31.6-30.8-47.5c-1.2-1.9-2.7-3.3-4.6-4.4C97.8,8.6,87.6,5.1,75.5,5.6
		C64.8,6,54.9,7,45.9,13c-2.2,1.4-4.9,2-6.5,4.4C28.7,33,18,48.5,7.2,64c-1.3,1.9-1.3,3.1,0.6,4.5c5,3.8,9.9,7.8,14.8,11.8
		c1.9,1.6,3.1,1.7,4.6-0.7c2.2-3.4,4.9-6.6,8-10.6c0.1,12.6-1.3,23.6-2,34.7c-0.2,2.8,0.3,4.5,4,4.4c14.5-0.2,29-0.2,43.4,0
		c3.5,0,4.1-1.2,4.1-4.3c-0.2-12.1-0.3-24.3,0-36.4c0.2-6.8-0.5-13.2-4-19c-1.6-2.7-1.3-5.2,0-8c3.3-7.7,6.4-15.5,9.7-23.2
		c0.6-1.4,1-4.1,2.9-3.2c2.1,1,5.5,1.2,5.8,4.6c1,10.4-1.3,19.6-11.1,25.1c-2.6,1.5-2.4,2.8-1.3,5.2c2,4,3.6,8,3.5,12.7
		c-0.3,14.1,0,28.3-0.2,42.4c0,3.3,0.9,4.3,4.2,4.2c6.1-0.3,12.3-0.4,18.5,0c4.2,0.3,5.2-1.4,4.9-5.1c-0.8-9.9-2.1-19.8-2-31.3
		c3.1,4.1,5.6,6.9,7.5,10.1c1.9,3.2,3.6,2.9,6.1,0.7c4.1-3.6,8.3-7.1,12.8-10.3C144.8,70.5,145.2,69,143.3,66.1z M51.1,32.8
		c-0.7-1.7-1.2-3.4-1.7-5.1c-2.2-7.8,0.2-11.8,7.9-13.7c1.2-0.3,2,0.1,2.4,1c5.3,12.3,10.6,24.6,16,36.9c-0.4,0.3-0.7,0.6-1.1,0.8
		C65.7,47.5,55.6,43.6,51.1,32.8z M75.8,66c1.5,0.5,2.8,1.4,2.7,3.1c-0.1,1.7-1.3,2.8-2.9,2.8c-1.8-0.1-3.2-1.3-2.9-3.3
		C72.8,67.1,74,66.1,75.8,66z M75.4,78.1c1.6-0.1,2.6,1.1,3.1,2.7c-0.1,1.7-1.1,2.8-2.7,3.1c-1.7,0.2-2.9-0.9-3.2-2.4
		C72.3,79.4,73.6,78.2,75.4,78.1z M75.4,95.9c-1.6-0.1-2.9-1.2-2.8-2.9c0.1-1.9,1.3-3.1,3.3-2.9c1.6,0.2,2.6,1.4,2.7,3.1
		C78.1,94.8,77.1,96,75.4,95.9z M75.7,36.3c-3.7-8.5-7-15.9-10.5-23.9c7.2,0,13.6,0,20.5,0C82.5,20.2,79.4,27.7,75.7,36.3z"/>
</g>
</svg>
