<?xml version="1.0" encoding="utf-8"?>
<!-- Generator: Adobe Illustrator 28.2.0, SVG Export Plug-In . SVG Version: 6.00 Build 0)  -->
<svg version="1.1" id="Camada_1" xmlns="http://www.w3.org/2000/svg" xmlns:xlink="http://www.w3.org/1999/xlink" x="0px" y="0px"
	 viewBox="0 0 68 68" style="enable-background:new 0 0 68 68;" xml:space="preserve">
<style type="text/css">
	.st0{fill:none;stroke:#4E8098;stroke-width:4;}
	.st1{fill:none;stroke:#4E8098;stroke-width:4;stroke-linecap:round;}
	.st2{fill:#4E8098;}
</style>
<path class="st0" d="M40.72,7.82c-1.38-7.45-12.06-7.45-13.44,0C27,9.33,25.16,9.93,24.05,8.87c-5.5-5.22-14.13,1.06-10.87,7.9
	c0.66,1.38-0.48,2.95-2,2.75C3.67,18.53,0.37,28.68,7.03,32.3c1.35,0.73,1.35,2.67,0,3.4c-6.66,3.62-3.36,13.77,4.15,12.78
	c1.52-0.2,2.66,1.37,2,2.75c-3.26,6.84,5.37,13.11,10.87,7.9c1.11-1.06,2.95-0.46,3.23,1.05c1.38,7.45,12.06,7.45,13.44,0
	c0.28-1.51,2.12-2.11,3.23-1.05c5.5,5.22,14.13-1.06,10.87-7.9c-0.66-1.39,0.48-2.95,2-2.75c7.51,0.99,10.81-9.16,4.15-12.78
	c-1.35-0.73-1.35-2.67,0-3.4c6.66-3.62,3.36-13.77-4.15-12.78c-1.52,0.2-2.66-1.37-2-2.75c3.26-6.84-5.37-13.11-10.87-7.9
	C42.84,9.93,41,9.33,40.72,7.82z"/>
<path class="st1" d="M21.75,46.25l24.49-24.49"/>
<circle class="st2" cx="40.12" cy="46.25" r="6.12"/>
<circle class="st2" cx="27.88" cy="21.75" r="6.12"/>
</svg>
