<?xml version="1.0" encoding="utf-8"?>
<!-- Generator: Adobe Illustrator 28.2.0, SVG Export Plug-In . SVG Version: 6.00 Build 0)  -->
<svg version="1.1" id="Camada_1" xmlns="http://www.w3.org/2000/svg" xmlns:xlink="http://www.w3.org/1999/xlink" x="0px" y="0px"
	 viewBox="0 0 150 150" style="enable-background:new 0 0 150 150;" xml:space="preserve">
<style type="text/css">
	.st0{fill:#18385F;}
	.st1{fill:#203C64;}
</style>
<g>
	<path class="st0" d="M93.1,35.1c0-7.6-3.6-11.2-11.2-11.2c-22.3,0-44.6,0.1-66.9-0.1c-5.9-0.1-11.1,0.5-15,5.3
		c0,28.6,0,57.3,0,85.9c4.5,5.5,10.7,5.7,17,5.2c2.9-0.2,4.3,0.7,5.5,3.6c2.9,7,8.4,11,16.1,11.3c7.1,0.3,14.5-4.3,16.8-11
		c1.2-3.5,3.1-4,6.3-4c9,0.1,18-0.2,26.9,0.2c3.9,0.1,4.6-1.2,4.6-4.8C93.1,88.7,93.2,61.9,93.1,35.1z M39.3,128.9
		c-6.5,0.2-12.1-5.2-12.2-11.8c-0.1-6.5,5.3-12,11.9-12.1c6.5,0,12,5.5,12,12C50.9,123.4,45.6,128.7,39.3,128.9z M44.6,92.9
		C30,92.7,18,80.4,18.1,65.7C18.2,51.1,30.5,39,45.2,39.1C59.8,39.2,72,51.5,72,66.1C71.9,80.9,59.5,93.1,44.6,92.9z"/>
	<path class="st0" d="M133.6,53.8c-4.5-6.1-10.1-9.9-18.2-9c-3.9,0.4-8,0.3-12,0c-3.7-0.3-4.8,0.8-4.8,4.6c0.2,20.1,0,40.3,0.2,60.4
		c0,4.2-2,9.3,3.7,11.9c0.4,0.2,0.5,1.2,0.7,1.8c3.2,7.2,8.7,11.2,16.5,11.5c7.3,0.3,13.8-4.4,16.9-11.7c0.6-1.4,0.9-3.3,2.7-3.1
		c5.1,0.4,7.8-2.9,10.5-6.2c0-12,0-24,0-36C145.8,69.1,139.4,61.6,133.6,53.8z M119.9,128.9c-6.3,0-11.8-5.4-11.9-11.7
		c-0.1-6.6,5.3-12.2,11.9-12.2c6.3,0,11.8,5.3,11.9,11.7C132,123.2,126.5,128.9,119.9,128.9z M141,80.9c-3.8-0.1-7.6,0-11.4,0
		c-3.7,0-7.3-0.1-11,0c-3.1,0.1-4.6-1.1-4.6-4.4c0.1-7.5,0.1-14.9,0-22.4c0-2.1,0.5-2.9,2.8-3c3.4,0,6.5,0.3,8.9,3.3
		c6.2,7.5,12.7,14.7,17,23.6C143.8,80.4,143.5,80.9,141,80.9z"/>
	<path class="st1" d="M48.2,58.3c-0.4,2.8,1.4,6.8-0.7,9.2c-3.1,3.5-7.3,6.2-11.2,9c-1.6,1.1-2.7-0.4-3.6-1.7
		c-0.8-1.1-1.7-2.2-0.1-3.3c0.3-0.2,0.5-0.5,0.8-0.6c8.7-3.7,9.2-11,8.4-19c-0.2-2.3-0.3-4.3,3.1-4.2c2.2,0.1,3.5,0.5,3.3,3.1
		C48.1,53.1,48.2,55.5,48.2,58.3z"/>
</g>
</svg>
