<svg width="43" height="41" viewBox="0 0 43 41" fill="none" xmlns="http://www.w3.org/2000/svg">
<path d="M17.428 2.73244C18.7856 -0.648288 23.5715 -0.648286 24.9292 2.73244L27.6777 9.57695C28.2558 11.0166 29.607 11.9983 31.1549 12.1032L38.5137 12.6022C42.1485 12.8487 43.6274 17.4003 40.8317 19.7362L35.1715 24.4653C33.981 25.46 33.4649 27.0484 33.8434 28.5529L35.6428 35.7058C36.5317 39.2388 32.6598 42.0519 29.5743 40.1148L23.3276 36.1931C22.0137 35.3682 20.3435 35.3682 19.0296 36.1931L12.7829 40.1148C9.69741 42.0519 5.82554 39.2388 6.71435 35.7058L8.51382 28.5529C8.89231 27.0484 8.37621 25.46 7.18567 24.4653L1.52551 19.7362C-1.27023 17.4003 0.208697 12.8487 3.84349 12.6022L11.2023 12.1032C12.7502 11.9983 14.1014 11.0166 14.6795 9.57695L17.428 2.73244Z" fill="#FCF7F8"/>
</svg>
