<svg width="947" height="938" viewBox="0 0 947 938" fill="none" xmlns="http://www.w3.org/2000/svg">
<path d="M314.01 537.328C314.01 537.328 327.511 574.297 361.541 574.297C395.571 574.297 411.713 537.328 411.713 537.328" stroke="white" stroke-width="10.8754" stroke-linecap="round"/>
<path d="M315.595 545.249L306.088 550.53" stroke="white" stroke-width="10.8754" stroke-linecap="round"/>
<path d="M361.541 587.499V574.296" stroke="white" stroke-width="10.8754" stroke-linecap="round"/>
<path d="M409.071 545.249L419.634 550.531" stroke="white" stroke-width="10.8754" stroke-linecap="round"/>
<path d="M333.253 566.028L324.572 576.937" stroke="white" stroke-width="10.8754" stroke-linecap="round"/>
<path d="M393.227 566.374L401.149 574.296" stroke="white" stroke-width="10.8754" stroke-linecap="round"/>
<path d="M534.006 537.328C534.006 537.328 547.507 574.297 581.537 574.297C615.567 574.297 631.708 537.328 631.708 537.328" stroke="white" stroke-width="10.8754" stroke-linecap="round"/>
<path d="M535.59 545.249L526.083 550.53" stroke="white" stroke-width="10.8754" stroke-linecap="round"/>
<path d="M581.536 587.499V574.296" stroke="white" stroke-width="10.8754" stroke-linecap="round"/>
<path d="M629.067 545.249L639.63 550.531" stroke="white" stroke-width="10.8754" stroke-linecap="round"/>
<path d="M553.249 566.028L544.567 576.937" stroke="white" stroke-width="10.8754" stroke-linecap="round"/>
<path d="M613.223 566.374L621.145 574.296" stroke="white" stroke-width="10.8754" stroke-linecap="round"/>
<path d="M589.444 452.168H357.461C328.576 452.168 263.508 476.481 263.508 539.263C263.507 604.392 289.563 643.777 357.461 643.777C425.358 643.777 450.226 597.106 462.136 584.055C467.2 578.506 470.029 576.018 475.687 576.018C481.345 576.018 482.875 579.301 487.598 584.055C506.807 603.39 520.952 643.777 589.444 643.777C645.431 643.777 682.209 618.321 682.209 539.263C682.209 475.528 619.621 454.657 589.444 452.168Z" stroke="white" stroke-width="10.8754"/>
<path d="M743.639 275.16L738.303 274.115V274.115L743.639 275.16ZM717.93 252.769L720.331 257.648V257.648L717.93 252.769ZM710.061 446.615L704.724 445.57L703.638 451.119L709.224 451.988L710.061 446.615ZM711.154 446.785L710.318 452.158L711.154 446.785ZM787.984 523.912L782.83 525.643L787.984 523.912ZM784.616 530.504L782.927 525.335L784.616 530.504ZM757.024 567.046L757.86 561.673L757.024 567.046ZM813.241 665.162L818.678 665.136V665.136L813.241 665.162ZM806.16 669.96L807.942 664.822L806.16 669.96ZM709.474 666.816L709.883 672.239L709.474 666.816ZM602.543 727.578L606.282 731.526L606.575 731.248L606.824 730.93L602.543 727.578ZM588.924 740.475L585.185 736.526L584.14 737.517L583.721 738.895L588.924 740.475ZM373.032 755.357L378.09 753.361L377.647 752.239L376.771 751.409L373.032 755.357ZM343.698 727.578L339.417 730.93L339.666 731.248L339.959 731.526L343.698 727.578ZM236.767 666.816L236.358 672.239L236.767 666.816ZM140.081 669.96L141.862 675.097L141.862 675.097L140.081 669.96ZM133 665.162L127.562 665.136V665.136L133 665.162ZM189.217 567.046L188.381 561.673H188.381L189.217 567.046ZM161.625 530.504L163.314 525.335H163.314L161.625 530.504ZM158.256 523.912L163.411 525.643L158.256 523.912ZM235.087 446.785L235.923 452.158L235.087 446.785ZM246.761 444.969L247.598 450.342L253.184 449.472L252.098 443.924L246.761 444.969ZM213.883 277.088L219.219 276.043V276.043L213.883 277.088ZM239.592 254.696L237.191 259.576L237.191 259.576L239.592 254.696ZM387.195 327.305L384.795 332.185L387.068 333.303L389.387 332.282L387.195 327.305ZM569.161 325.951L567.046 330.961L569.333 331.927L571.561 330.831L569.161 325.951ZM748.975 276.205C750.924 266.254 747.156 257.042 740.65 251.375C734.112 245.681 724.581 243.437 715.53 247.89L720.331 257.648C724.948 255.377 729.829 256.372 733.508 259.576C737.218 262.807 739.471 268.152 738.303 274.115L748.975 276.205ZM715.397 447.66L748.975 276.205L738.303 274.115L704.724 445.57L715.397 447.66ZM711.99 441.412L710.897 441.242L709.224 451.988L710.318 452.158L711.99 441.412ZM793.139 522.18C788.655 508.832 779.98 490.602 766.744 474.752C753.502 458.895 735.367 445.05 711.99 441.412L710.318 452.158C730.244 455.259 746.208 467.127 758.397 481.723C770.593 496.327 778.681 513.292 782.83 525.643L793.139 522.18ZM786.305 535.672C791.796 533.878 795.081 527.962 793.139 522.18L782.83 525.643C782.826 525.633 782.817 525.593 782.822 525.537C782.826 525.486 782.84 525.444 782.856 525.414C782.887 525.353 782.928 525.335 782.927 525.335L786.305 535.672ZM757.86 561.673C752.315 560.81 748.379 559.803 745.713 558.769C744.39 558.255 743.484 557.775 742.888 557.374C742.595 557.178 742.401 557.015 742.277 556.898C742.155 556.781 742.113 556.719 742.114 556.72C742.365 557.095 742.187 557.591 742.296 557.364C742.566 556.801 743.409 555.696 745.358 554.146C749.173 551.111 755.431 547.756 762.956 544.46C770.383 541.207 778.679 538.165 786.305 535.672L782.927 525.335C775.065 527.905 766.424 531.068 758.593 534.498C750.861 537.885 743.542 541.693 738.587 545.635C736.151 547.572 733.811 549.909 732.492 552.658C731.011 555.744 730.836 559.422 733.075 562.768C734.995 565.638 738.236 567.533 741.78 568.908C745.461 570.336 750.246 571.495 756.188 572.419L757.86 561.673ZM818.678 665.136C818.597 647.795 815.73 624.223 806.929 603.896C798.109 583.522 782.892 565.568 757.86 561.673L756.188 572.419C776.134 575.523 788.945 589.73 796.949 608.217C804.973 626.75 807.726 648.736 807.803 665.187L818.678 665.136ZM804.379 675.097C810.99 677.39 818.715 672.969 818.678 665.136L807.803 665.187C807.803 665.194 807.803 665.175 807.812 665.137C807.822 665.1 807.837 665.058 807.86 665.017C807.907 664.932 807.961 664.883 807.994 664.861C808.026 664.841 808.041 664.84 808.037 664.841C808.035 664.841 808.029 664.842 808.016 664.84C808.003 664.839 807.979 664.835 807.942 664.822L804.379 675.097ZM709.883 672.239C773.227 667.456 789.089 669.796 804.379 675.097L807.942 664.822C790.326 658.714 772.444 656.609 709.065 661.394L709.883 672.239ZM606.824 730.93C642.13 685.846 677.914 674.652 709.883 672.239L709.065 661.394C674.447 664.008 635.687 676.435 598.262 724.225L606.824 730.93ZM592.663 744.423L606.282 731.526L598.804 723.629L585.185 736.526L592.663 744.423ZM478.388 846.802C531.544 846.802 575.76 802.548 594.127 742.054L583.721 738.895C566.12 796.866 524.901 835.927 478.388 835.927V846.802ZM367.974 757.353C388.666 809.79 429.818 846.802 478.388 846.802V835.927C435.865 835.927 397.813 803.343 378.09 753.361L367.974 757.353ZM339.959 731.526L369.293 759.305L376.771 751.409L347.437 723.629L339.959 731.526ZM236.358 672.239C268.327 674.652 304.111 685.846 339.417 730.93L347.979 724.225C310.554 676.435 271.794 664.008 237.176 661.394L236.358 672.239ZM141.862 675.097C157.152 669.796 173.014 667.456 236.358 672.239L237.176 661.394C173.797 656.609 155.915 658.714 138.299 664.822L141.862 675.097ZM127.562 665.136C127.526 672.969 135.251 677.39 141.862 675.097L138.299 664.822C138.262 664.835 138.238 664.839 138.225 664.84C138.212 664.842 138.206 664.841 138.204 664.841C138.2 664.84 138.215 664.841 138.247 664.861C138.279 664.883 138.334 664.932 138.381 665.017C138.403 665.058 138.419 665.1 138.429 665.137C138.438 665.175 138.438 665.194 138.438 665.187L127.562 665.136ZM188.381 561.673C163.349 565.568 148.132 583.522 139.312 603.896C130.511 624.223 127.644 647.795 127.562 665.136L138.438 665.187C138.515 648.736 141.268 626.75 149.292 608.217C157.296 589.73 170.107 575.523 190.053 572.419L188.381 561.673ZM159.935 535.672C167.562 538.165 175.858 541.207 183.285 544.46C190.81 547.756 197.068 551.111 200.883 554.146C202.832 555.696 203.675 556.801 203.945 557.364C204.054 557.591 203.876 557.095 204.127 556.72C204.128 556.719 204.086 556.781 203.964 556.898C203.84 557.015 203.646 557.178 203.353 557.374C202.757 557.775 201.851 558.255 200.528 558.769C197.862 559.803 193.926 560.81 188.381 561.673L190.053 572.419C195.995 571.495 200.78 570.336 204.461 568.908C208.005 567.533 211.246 565.638 213.166 562.768C215.405 559.422 215.23 555.744 213.749 552.658C212.43 549.909 210.089 547.572 207.654 545.635C202.699 541.693 195.38 537.885 187.648 534.498C179.817 531.068 171.176 527.905 163.314 525.335L159.935 535.672ZM153.102 522.18C151.16 527.962 154.445 533.878 159.935 535.672L163.314 525.335C163.313 525.335 163.354 525.353 163.385 525.414C163.401 525.444 163.415 525.486 163.419 525.537C163.424 525.593 163.415 525.633 163.411 525.643L153.102 522.18ZM234.251 441.412C210.874 445.05 192.739 458.895 179.497 474.752C166.261 490.602 157.586 508.832 153.102 522.18L163.411 525.643C167.56 513.292 175.648 496.327 187.844 481.723C200.033 467.127 215.997 455.259 235.923 452.158L234.251 441.412ZM245.925 439.596L234.251 441.412L235.923 452.158L247.598 450.342L245.925 439.596ZM208.547 278.133L241.425 446.014L252.098 443.924L219.219 276.043L208.547 278.133ZM241.992 249.817C232.941 245.365 223.41 247.608 216.872 253.303C210.366 258.969 206.598 268.182 208.547 278.133L219.219 276.043C218.052 270.08 220.304 264.735 224.014 261.504C227.693 258.3 232.574 257.305 237.191 259.576L241.992 249.817ZM389.595 322.426L241.992 249.817L237.191 259.576L384.795 332.185L389.595 322.426ZM479.748 302.572C445.908 302.572 413.798 309.647 385.003 322.329L389.387 332.282C416.814 320.202 447.432 313.447 479.748 313.447V302.572ZM571.277 320.942C543.314 309.132 512.333 302.572 479.748 302.572V313.447C510.866 313.447 540.409 319.711 567.046 330.961L571.277 320.942ZM715.53 247.89L566.761 321.072L571.561 330.831L720.331 257.648L715.53 247.89Z" fill="white"/>
<path d="M486.811 760.834C482.549 766.35 474.271 766.489 469.827 761.118L440.793 726.037C434.98 719.012 439.872 708.382 448.989 708.229L505.864 707.275C514.981 707.122 520.227 717.583 514.652 724.798L486.811 760.834Z" stroke="white" stroke-width="10.8754"/>
<path d="M378.718 238.342L437.706 174.655H378.718V162.997H453.888V174.655L394.378 238.342H453.888V250H378.718V238.342ZM478.007 236.95L546.74 141.072H478.007V128.196H563.27V141.246L494.19 237.124H563.27V250H478.007V236.95Z" fill="white"/>
</svg>
