<svg width="947" height="956" viewBox="0 0 947 956" fill="none" xmlns="http://www.w3.org/2000/svg">
<path d="M314.233 441.328C314.233 441.328 327.734 478.297 361.764 478.297C395.795 478.297 411.936 441.328 411.936 441.328" stroke="white" stroke-width="10.8754" stroke-linecap="round"/>
<path d="M315.818 449.249L306.311 454.53" stroke="white" stroke-width="10.8754" stroke-linecap="round"/>
<path d="M361.764 491.499V478.296" stroke="white" stroke-width="10.8754" stroke-linecap="round"/>
<path d="M409.295 449.249L419.857 454.53" stroke="white" stroke-width="10.8754" stroke-linecap="round"/>
<path d="M333.476 470.027L324.795 480.937" stroke="white" stroke-width="10.8754" stroke-linecap="round"/>
<path d="M393.45 470.374L401.372 478.296" stroke="white" stroke-width="10.8754" stroke-linecap="round"/>
<path d="M534.229 441.328C534.229 441.328 547.73 478.297 581.76 478.297C615.79 478.297 631.932 441.328 631.932 441.328" stroke="white" stroke-width="10.8754" stroke-linecap="round"/>
<path d="M535.813 449.249L526.306 454.53" stroke="white" stroke-width="10.8754" stroke-linecap="round"/>
<path d="M581.759 491.499V478.296" stroke="white" stroke-width="10.8754" stroke-linecap="round"/>
<path d="M629.29 449.249L639.853 454.53" stroke="white" stroke-width="10.8754" stroke-linecap="round"/>
<path d="M553.472 470.027L544.791 480.937" stroke="white" stroke-width="10.8754" stroke-linecap="round"/>
<path d="M613.447 470.374L621.368 478.296" stroke="white" stroke-width="10.8754" stroke-linecap="round"/>
<path d="M589.667 356.168H357.684C328.799 356.168 263.731 380.481 263.731 443.263C263.731 508.392 289.786 547.777 357.684 547.777C425.582 547.777 450.449 501.106 462.359 488.055C467.423 482.506 470.252 480.018 475.911 480.018C481.569 480.018 483.098 483.301 487.821 488.055C507.03 507.39 521.176 547.777 589.667 547.777C645.655 547.777 682.432 522.321 682.432 443.263C682.432 379.528 619.844 358.657 589.667 356.168Z" stroke="white" stroke-width="10.8754"/>
<path d="M743.862 179.16L738.526 178.115V178.115L743.862 179.16ZM718.153 156.769L720.554 161.648V161.648L718.153 156.769ZM710.284 350.615L704.947 349.57L703.861 355.119L709.448 355.988L710.284 350.615ZM711.377 350.785L710.541 356.158L711.377 350.785ZM788.208 427.912L783.053 429.643V429.643L788.208 427.912ZM784.839 434.504L783.15 429.335H783.15L784.839 434.504ZM757.247 471.046L758.084 465.673L757.247 471.046ZM813.464 569.162L818.902 569.136L813.464 569.162ZM806.383 573.96L808.165 568.822L806.383 573.96ZM709.697 570.816L710.106 576.239L709.697 570.816ZM602.766 631.578L606.505 635.526L606.798 635.248L607.047 634.93L602.766 631.578ZM589.147 644.475L585.408 640.526L584.363 641.517L583.944 642.895L589.147 644.475ZM373.255 659.357L378.313 657.361L377.87 656.238L376.994 655.409L373.255 659.357ZM343.921 631.578L339.64 634.93L339.889 635.248L340.182 635.526L343.921 631.578ZM236.99 570.816L236.581 576.239H236.581L236.99 570.816ZM140.304 573.96L142.085 579.097H142.085L140.304 573.96ZM133.223 569.162L127.786 569.136L127.786 569.136L133.223 569.162ZM189.44 471.046L188.604 465.673L189.44 471.046ZM161.848 434.504L163.537 429.335H163.537L161.848 434.504ZM158.48 427.912L163.634 429.643L158.48 427.912ZM235.31 350.785L236.146 356.158L235.31 350.785ZM246.985 348.969L247.821 354.342L253.408 353.472L252.321 347.924L246.985 348.969ZM214.106 181.088L219.442 180.042L214.106 181.088ZM239.815 158.696L237.415 163.576L239.815 158.696ZM387.418 231.305L385.018 236.184L387.291 237.303L389.61 236.282L387.418 231.305ZM569.384 229.951L567.269 234.96L569.556 235.927L571.784 234.83L569.384 229.951ZM749.198 180.205C751.147 170.254 747.38 161.041 740.873 155.375C734.335 149.68 724.804 147.437 715.753 151.889L720.554 161.648C725.171 159.377 730.052 160.372 733.731 163.576C737.441 166.807 739.694 172.152 738.526 178.115L749.198 180.205ZM715.62 351.66L749.198 180.205L738.526 178.115L704.947 349.57L715.62 351.66ZM712.213 345.412L711.12 345.242L709.448 355.988L710.541 356.158L712.213 345.412ZM793.362 426.18C788.878 412.832 780.203 394.601 766.967 378.752C753.725 362.895 735.59 349.05 712.213 345.412L710.541 356.158C730.467 359.259 746.431 371.127 758.62 385.723C770.816 400.327 778.904 417.291 783.053 429.643L793.362 426.18ZM786.529 439.672C792.019 437.878 795.304 431.962 793.362 426.18L783.053 429.643C783.049 429.633 783.04 429.593 783.045 429.537C783.049 429.486 783.063 429.444 783.079 429.413C783.11 429.353 783.151 429.335 783.15 429.335L786.529 439.672ZM758.084 465.673C752.538 464.81 748.602 463.803 745.936 462.769C744.613 462.255 743.707 461.775 743.111 461.374C742.819 461.177 742.624 461.015 742.5 460.898C742.378 460.781 742.336 460.719 742.337 460.72C742.588 461.095 742.41 461.591 742.519 461.364C742.789 460.801 743.632 459.696 745.581 458.145C749.396 455.111 755.654 451.756 763.18 448.46C770.606 445.206 778.902 442.165 786.529 439.672L783.15 429.335C775.288 431.904 766.647 435.068 758.816 438.498C751.084 441.885 743.765 445.693 738.81 449.635C736.375 451.572 734.034 453.909 732.715 456.658C731.234 459.743 731.059 463.422 733.298 466.767C735.218 469.637 738.459 471.533 742.003 472.908C745.684 474.336 750.469 475.494 756.411 476.419L758.084 465.673ZM818.902 569.136C818.82 551.795 815.953 528.223 807.152 507.896C798.332 487.522 783.115 469.568 758.084 465.673L756.411 476.419C776.357 479.523 789.169 493.73 797.172 512.217C805.196 530.75 807.949 552.736 808.026 569.187L818.902 569.136ZM804.602 579.097C811.213 581.39 818.938 576.969 818.902 569.136L808.026 569.187C808.026 569.194 808.026 569.175 808.035 569.137C808.045 569.1 808.061 569.058 808.083 569.016C808.13 568.932 808.185 568.883 808.218 568.861C808.249 568.841 808.264 568.84 808.26 568.84C808.259 568.841 808.252 568.841 808.239 568.84C808.226 568.839 808.202 568.835 808.165 568.822L804.602 579.097ZM710.106 576.239C773.45 571.456 789.312 573.796 804.602 579.097L808.165 568.822C790.549 562.714 772.667 560.609 709.288 565.394L710.106 576.239ZM607.047 634.93C642.353 589.845 678.137 578.652 710.106 576.239L709.288 565.394C674.67 568.008 635.91 580.435 598.485 628.225L607.047 634.93ZM592.886 648.423L606.505 635.526L599.027 627.629L585.408 640.526L592.886 648.423ZM478.611 750.802C531.767 750.802 575.983 706.548 594.351 646.054L583.944 642.895C566.343 700.866 525.125 739.927 478.611 739.927V750.802ZM368.197 661.353C388.889 713.79 430.041 750.802 478.611 750.802V739.927C436.088 739.927 398.036 707.343 378.313 657.361L368.197 661.353ZM340.182 635.526L369.516 663.305L376.994 655.409L347.66 627.629L340.182 635.526ZM236.581 576.239C268.55 578.652 304.334 589.845 339.64 634.93L348.202 628.225C310.777 580.435 272.017 568.008 237.399 565.394L236.581 576.239ZM142.085 579.097C157.375 573.796 173.237 571.456 236.581 576.239L237.399 565.394C174.02 560.609 156.138 562.714 138.522 568.822L142.085 579.097ZM127.786 569.136C127.749 576.969 135.474 581.39 142.085 579.097L138.522 568.822C138.486 568.835 138.461 568.839 138.449 568.84C138.435 568.841 138.429 568.841 138.427 568.84C138.423 568.84 138.438 568.841 138.47 568.861C138.503 568.883 138.557 568.932 138.604 569.016C138.627 569.058 138.642 569.1 138.652 569.137C138.661 569.175 138.661 569.194 138.661 569.187L127.786 569.136ZM188.604 465.673C163.572 469.568 148.356 487.522 139.535 507.896C130.734 528.223 127.867 551.795 127.786 569.136L138.661 569.187C138.738 552.736 141.491 530.75 149.515 512.217C157.519 493.73 170.33 479.523 190.276 476.419L188.604 465.673ZM160.159 439.672C167.785 442.165 176.081 445.206 183.508 448.46C191.033 451.756 197.292 455.111 201.106 458.145C203.055 459.696 203.898 460.801 204.168 461.364C204.277 461.591 204.099 461.095 204.35 460.72C204.351 460.719 204.309 460.781 204.187 460.898C204.063 461.015 203.869 461.177 203.576 461.374C202.98 461.775 202.074 462.255 200.751 462.769C198.085 463.803 194.149 464.81 188.604 465.673L190.276 476.419C196.218 475.494 201.003 474.336 204.684 472.908C208.228 471.533 211.469 469.637 213.389 466.767C215.628 463.422 215.453 459.743 213.972 456.658C212.653 453.909 210.313 451.572 207.877 449.635C202.922 445.693 195.604 441.885 187.871 438.498C180.04 435.068 171.4 431.904 163.537 429.335L160.159 439.672ZM153.325 426.18C151.383 431.962 154.668 437.878 160.159 439.672L163.537 429.335C163.536 429.335 163.577 429.353 163.608 429.413C163.624 429.444 163.638 429.486 163.642 429.537C163.647 429.593 163.638 429.633 163.634 429.643L153.325 426.18ZM234.474 345.412C211.097 349.05 192.962 362.895 179.72 378.752C166.484 394.601 157.809 412.832 153.325 426.18L163.634 429.643C167.783 417.291 175.872 400.327 188.067 385.723C200.256 371.127 216.22 359.259 236.146 356.158L234.474 345.412ZM246.149 343.596L234.474 345.412L236.146 356.158L247.821 354.342L246.149 343.596ZM208.77 182.133L241.648 350.014L252.321 347.924L219.442 180.042L208.77 182.133ZM242.215 153.817C233.164 149.365 223.633 151.608 217.095 157.302C210.589 162.969 206.821 172.182 208.77 182.133L219.442 180.042C218.275 174.079 220.527 168.735 224.237 165.503C227.916 162.3 232.798 161.304 237.415 163.576L242.215 153.817ZM389.818 226.426L242.215 153.817L237.415 163.576L385.018 236.184L389.818 226.426ZM479.971 206.571C446.131 206.571 414.021 213.647 385.226 226.329L389.61 236.282C417.037 224.202 447.655 217.447 479.971 217.447V206.571ZM571.5 224.942C543.538 213.132 512.556 206.571 479.971 206.571V217.447C511.089 217.447 540.632 223.711 567.269 234.96L571.5 224.942ZM715.753 151.889L566.984 225.072L571.784 234.83L720.554 161.648L715.753 151.889Z" fill="white"/>
<path d="M487.034 664.834C482.773 670.35 474.495 670.489 470.05 665.118L441.016 630.037C435.203 623.012 440.095 612.382 449.212 612.229L506.087 611.275C515.204 611.122 520.45 621.583 514.876 628.798L487.034 664.834Z" stroke="white" stroke-width="10.8754"/>
<path d="M25.2308 871.981V857.712H58.1179C62.6421 857.712 66.6442 856.784 70.1243 854.928C73.7205 853.072 76.5046 850.462 78.4766 847.098C80.5647 843.734 81.6087 839.732 81.6087 835.092C81.6087 830.451 80.5647 826.449 78.4766 823.085C76.5046 819.721 73.7205 817.111 70.1243 815.255C66.6442 813.399 62.6421 812.471 58.1179 812.471H25.2308V798.202H59.162C66.5862 798.202 73.1984 799.71 78.9986 802.727C84.9148 805.743 89.555 810.035 92.9191 815.603C96.3992 821.055 98.1393 827.551 98.1393 835.092C98.1393 842.516 96.3992 849.012 92.9191 854.58C89.555 860.032 84.9148 864.325 78.9986 867.457C73.1984 870.473 66.5862 871.981 59.162 871.981H25.2308ZM14.2685 918.962V798.202H30.625V918.962H14.2685ZM117.183 918.962V836.31H132.844V918.962H117.183ZM125.014 819.779C122.114 819.779 119.735 818.851 117.879 816.995C116.023 815.023 115.095 812.587 115.095 809.687C115.095 806.903 116.023 804.583 117.879 802.727C119.735 800.754 122.114 799.768 125.014 799.768C127.914 799.768 130.292 800.754 132.148 802.727C134.004 804.583 134.932 806.903 134.932 809.687C134.932 812.587 134.004 815.023 132.148 816.995C130.292 818.851 127.914 819.779 125.014 819.779ZM145.482 955.33C140.146 955.33 135.68 954.46 132.084 952.72C128.372 950.979 125.066 948.485 122.166 945.237L132.258 934.971C133.882 936.943 135.68 938.393 137.652 939.321C139.508 940.249 141.77 940.713 144.438 940.713C147.919 940.713 150.935 939.611 153.487 937.407C156.039 935.319 157.315 932.129 157.315 927.837V836.31H172.975V927.663C172.975 933.695 171.699 938.741 169.147 942.801C166.595 946.861 163.231 949.935 159.055 952.024C154.879 954.228 150.355 955.33 145.482 955.33ZM165.319 819.779C162.535 819.779 160.215 818.851 158.359 816.995C156.503 815.023 155.575 812.587 155.575 809.687C155.575 806.903 156.503 804.583 158.359 802.727C160.215 800.754 162.535 799.768 165.319 799.768C168.219 799.768 170.597 800.754 172.453 802.727C174.309 804.583 175.237 806.903 175.237 809.687C175.237 812.587 174.309 815.023 172.453 816.995C170.597 818.851 168.219 819.779 165.319 819.779ZM231.175 920.702C223.635 920.702 216.79 918.846 210.642 915.134C204.494 911.306 199.622 906.144 196.026 899.648C192.546 893.152 190.806 885.843 190.806 877.723C190.806 869.603 192.546 862.295 196.026 855.798C199.622 849.302 204.436 844.14 210.468 840.312C216.616 836.484 223.519 834.57 231.175 834.57C237.439 834.57 243.007 835.904 247.879 838.572C252.868 841.124 256.87 844.72 259.886 849.36C262.902 853.884 264.584 859.162 264.932 865.195V890.077C264.584 895.994 262.902 901.272 259.886 905.912C256.986 910.552 253.042 914.206 248.053 916.874C243.181 919.426 237.555 920.702 231.175 920.702ZM233.785 905.912C241.557 905.912 247.821 903.302 252.578 898.082C257.334 892.746 259.712 885.959 259.712 877.723C259.712 872.039 258.61 867.109 256.406 862.933C254.318 858.64 251.302 855.334 247.357 853.014C243.413 850.578 238.831 849.36 233.611 849.36C228.391 849.36 223.751 850.578 219.69 853.014C215.746 855.45 212.614 858.814 210.294 863.107C208.09 867.283 206.988 872.097 206.988 877.549C206.988 883.117 208.09 888.047 210.294 892.34C212.614 896.516 215.804 899.822 219.864 902.258C223.925 904.694 228.565 905.912 233.785 905.912ZM258.668 918.962V896.69L261.626 876.505L258.668 856.494V836.31H274.502V918.962H258.668ZM297.302 918.962V836.31H312.963V918.962H297.302ZM353.158 918.962V869.023C353.158 862.875 351.244 858.06 347.416 854.58C343.704 850.984 339.006 849.186 333.322 849.186C329.494 849.186 326.071 849.998 323.055 851.622C320.039 853.246 317.603 855.508 315.747 858.408C313.891 861.308 312.963 864.789 312.963 868.849L306.525 865.717C306.525 859.452 307.859 854 310.527 849.36C313.311 844.72 317.081 841.124 321.837 838.572C326.593 835.904 331.93 834.57 337.846 834.57C343.646 834.57 348.866 835.846 353.506 838.398C358.263 840.95 361.975 844.546 364.643 849.186C367.427 853.826 368.819 859.336 368.819 865.717V918.962H353.158ZM409.014 918.962V869.023C409.014 862.875 407.1 858.06 403.272 854.58C399.56 850.984 394.92 849.186 389.352 849.186C385.523 849.186 382.043 849.998 378.911 851.622C375.895 853.246 373.459 855.508 371.603 858.408C369.747 861.308 368.819 864.789 368.819 868.849L359.945 865.717C360.293 859.336 361.975 853.884 364.991 849.36C368.123 844.72 372.125 841.124 376.997 838.572C381.869 835.904 387.206 834.57 393.006 834.57C399.038 834.57 404.432 835.846 409.188 838.398C413.944 840.95 417.715 844.546 420.499 849.186C423.399 853.826 424.849 859.394 424.849 865.891V918.962H409.014ZM475.914 935.667C466.982 935.667 460.311 933.115 455.903 928.011C451.495 922.907 449.755 915.366 450.683 905.39L452.771 883.813C453.235 879.405 452.829 876.157 451.553 874.069C450.277 871.981 448.015 870.937 444.767 870.937H439.895V858.93H444.767C448.015 858.93 450.277 857.886 451.553 855.798C452.829 853.594 453.235 850.346 452.771 846.054L450.683 824.999C449.755 814.907 451.495 807.367 455.903 802.379C460.311 797.274 466.982 794.722 475.914 794.722H484.614V807.077H477.306C472.086 807.077 468.374 808.411 466.17 811.079C464.082 813.747 463.328 818.155 463.908 824.303L465.648 843.444C466.112 847.968 465.938 851.854 465.126 855.102C464.314 858.234 462.632 860.844 460.079 862.933C457.643 865.021 454.163 866.703 449.639 867.979V862.411C454.163 863.339 457.643 864.847 460.079 866.935C462.632 869.023 464.314 871.691 465.126 874.939C465.938 878.071 466.112 881.899 465.648 886.423L463.908 906.086C463.444 912.234 464.256 916.584 466.344 919.136C468.432 921.804 472.086 923.139 477.306 923.139H484.614V935.667H475.914ZM505.189 918.962V798.202H521.546V918.962H505.189ZM550.05 918.962V798.202H561.534L566.407 817.169V918.962H550.05ZM633.573 918.962L559.446 819.953L561.534 798.202L635.835 897.038L633.573 918.962ZM633.573 918.962L628.701 901.04V798.202H645.057V918.962H633.573ZM674.283 935.667H665.583V923.139H672.891C678.111 923.139 681.766 921.804 683.854 919.136C685.942 916.584 686.754 912.234 686.29 906.086L684.55 886.423C684.202 881.899 684.376 878.071 685.072 874.939C685.884 871.691 687.508 869.023 689.944 866.935C692.496 864.847 696.034 863.339 700.558 862.411V867.979C696.034 866.703 692.496 865.021 689.944 862.933C687.508 860.844 685.884 858.234 685.072 855.102C684.376 851.854 684.202 847.968 684.55 843.444L686.29 824.303C686.87 818.155 686.058 813.747 683.854 811.079C681.766 808.411 678.111 807.077 672.891 807.077H665.583V794.722H674.283C683.216 794.722 689.886 797.274 694.294 802.379C698.818 807.367 700.558 814.907 699.514 824.999L697.426 846.054C696.962 850.346 697.368 853.594 698.644 855.798C699.92 857.886 702.182 858.93 705.43 858.93H710.303V870.937H705.43C702.182 870.937 699.92 871.981 698.644 874.069C697.368 876.157 696.962 879.405 697.426 883.813L699.514 905.39C700.442 915.366 698.702 922.907 694.294 928.011C689.886 933.115 683.216 935.667 674.283 935.667ZM785.515 918.962V870.763C785.515 864.499 783.543 859.336 779.599 855.276C775.655 851.216 770.551 849.186 764.287 849.186C760.11 849.186 756.398 850.114 753.15 851.97C749.902 853.826 747.35 856.378 745.494 859.626C743.638 862.875 742.71 866.587 742.71 870.763L736.272 867.109C736.272 860.844 737.664 855.276 740.448 850.404C743.232 845.532 747.118 841.704 752.106 838.92C757.094 836.02 762.72 834.57 768.985 834.57C775.249 834.57 780.759 835.962 785.515 838.746C790.387 841.53 794.216 845.416 797 850.404C799.784 855.392 801.176 861.134 801.176 867.631V918.962H785.515ZM727.049 918.962V794.722H742.71V918.962H727.049ZM857.528 920.702C849.988 920.702 843.143 918.846 836.995 915.134C830.847 911.306 825.975 906.144 822.379 899.648C818.898 893.152 817.158 885.843 817.158 877.723C817.158 869.603 818.898 862.295 822.379 855.798C825.975 849.302 830.789 844.14 836.821 840.312C842.969 836.484 849.872 834.57 857.528 834.57C863.792 834.57 869.36 835.904 874.232 838.572C879.221 841.124 883.223 844.72 886.239 849.36C889.255 853.884 890.937 859.162 891.285 865.195V890.077C890.937 895.994 889.255 901.272 886.239 905.912C883.339 910.552 879.395 914.206 874.406 916.874C869.534 919.426 863.908 920.702 857.528 920.702ZM860.138 905.912C867.91 905.912 874.174 903.302 878.93 898.082C883.687 892.746 886.065 885.959 886.065 877.723C886.065 872.039 884.963 867.109 882.759 862.933C880.671 858.64 877.654 855.334 873.71 853.014C869.766 850.578 865.184 849.36 859.964 849.36C854.744 849.36 850.104 850.578 846.043 853.014C842.099 855.45 838.967 858.814 836.647 863.107C834.443 867.283 833.341 872.097 833.341 877.549C833.341 883.117 834.443 888.047 836.647 892.34C838.967 896.516 842.157 899.822 846.217 902.258C850.278 904.694 854.918 905.912 860.138 905.912ZM885.021 918.962V896.69L887.979 876.505L885.021 856.494V836.31H900.855V918.962H885.021Z" fill="white"/>
<path d="M378.941 142.342L437.929 78.6555H378.941V66.9971H454.112V78.6555L394.602 142.342H454.112V154H378.941V142.342ZM478.23 140.95L546.963 45.0724H478.23V32.1959H563.493V45.2464L494.413 141.124H563.493V154H478.23V140.95Z" fill="white"/>
</svg>
